<svg width="358" height="152" viewBox="0 0 358 152" fill="none" xmlns="http://www.w3.org/2000/svg">
<path d="M0.333984 9.55185H8.95759V0.923462H0.333984V9.55185ZM12.2346 9.55185H20.8582V0.923462H12.2346V9.55185ZM36.0357 9.55185H44.6593V0.923462H36.0357V9.55185ZM47.9363 9.55185H56.5599V0.923462H47.9363V9.55185ZM59.8368 9.55185H68.4604V0.923462H59.8368V9.55185ZM83.5517 9.55185H92.1753V0.923462H83.5517V9.55185ZM95.4523 9.55185H104.076V0.923462H95.4523V9.55185ZM107.353 9.55185H115.976V0.923462H107.353V9.55185ZM119.253 9.55185H127.877V0.923462H119.253V9.55185ZM143.055 9.55185H151.678V0.923462H143.055V9.55185ZM154.955 9.55185H163.579V0.923462H154.955V9.55185ZM166.856 9.55185H175.479V0.923462H166.856V9.55185ZM190.657 9.55185H199.28V0.923462H190.657V9.55185ZM202.471 9.55185H211.095V0.923462H202.471V9.55185ZM214.372 9.55185H222.995V0.923462H214.372V9.55185ZM238.173 9.55185H246.796V0.923462H238.173V9.55185ZM250.073 9.55185H258.697V0.923462H250.073V9.55185ZM261.974 9.55185H270.598V0.923462H261.974V9.55185ZM273.875 9.55185H282.498V0.923462H273.875V9.55185ZM297.676 9.55185H306.299V0.923462H297.676V9.55185ZM309.576 9.55185H318.2V0.923462H309.576V9.55185ZM321.477 9.55185H330.1V0.923462H321.477V9.55185ZM333.291 9.55185H341.915V0.923462H333.291V9.55185ZM357.092 9.55185H365.716V0.923462H357.092V9.55185ZM380.893 9.55185H389.517V0.923462H380.893V9.55185ZM392.794 9.55185H401.418V0.923462H392.794V9.55185ZM416.595 9.55185H425.219V0.923462H416.595V9.55185ZM428.496 9.55185H437.119V0.923462H428.496V9.55185ZM440.396 9.55185H449.02V0.923462H440.396V9.55185ZM452.211 9.55185H460.834V0.923462H452.211V9.55185ZM464.111 9.55185H472.735V0.923462H464.111V9.55185ZM476.012 9.55185H484.635V0.923462H476.012V9.55185ZM487.912 9.55185H496.536V0.923462H487.912V9.55185ZM499.813 9.55185H508.437V0.923462H499.813V9.55185ZM523.614 9.55185H532.238V0.923462H523.614V9.55185ZM535.515 9.55185H544.138V0.923462H535.515V9.55185ZM547.415 9.55185H556.039V0.923462H547.415V9.55185ZM559.316 9.55185H567.939V0.923462H559.316V9.55185ZM571.216 9.55185H579.84V0.923462H571.216V9.55185ZM594.931 9.55185H603.555V0.923462H594.931V9.55185ZM618.732 9.55185H627.356V0.923462H618.732V9.55185ZM630.633 9.55185H639.257V0.923462H630.633V9.55185ZM642.534 0.923462V9.55185H651.157V0.923462H642.534ZM12.2346 21.1139H20.8582V12.4855H12.2346V21.1139ZM24.1351 21.1139H32.7587V12.4855H24.1351V21.1139ZM36.0357 21.1139H44.6593V12.4855H36.0357V21.1139ZM47.9363 21.1139H56.5599V12.4855H47.9363V21.1139ZM71.6512 21.1139H80.2748V12.4855H71.6512V21.1139ZM95.4523 21.1139H104.076V12.4855H95.4523V21.1139ZM107.353 21.1139H115.976V12.4855H107.353V21.1139ZM119.253 21.1139H127.877V12.4855H119.253V21.1139ZM131.154 21.1139H139.778V12.4855H131.154V21.1139ZM154.955 21.1139H163.579V12.4855H154.955V21.1139ZM166.856 21.1139H175.479V12.4855H166.856V21.1139ZM178.756 21.1139H187.38V12.4855H178.756V21.1139ZM214.372 21.1139H222.995V12.4855H214.372V21.1139ZM238.173 21.1139H246.796V12.4855H238.173V21.1139ZM250.073 21.1139H258.697V12.4855H250.073V21.1139ZM261.974 21.1139H270.598V12.4855H261.974V21.1139ZM273.875 21.1139H282.498V12.4855H273.875V21.1139ZM297.676 21.1139H306.299V12.4855H297.676V21.1139ZM309.576 21.1139H318.2V12.4855H309.576V21.1139ZM333.291 21.1139H341.915V12.4855H333.291V21.1139ZM345.192 21.1139H353.815V12.4855H345.192V21.1139ZM357.092 21.1139H365.716V12.4855H357.092V21.1139ZM368.993 21.1139H377.617V12.4855H368.993V21.1139ZM380.893 21.1139H389.517V12.4855H380.893V21.1139ZM392.794 21.1139H401.418V12.4855H392.794V21.1139ZM416.595 21.1139H425.219V12.4855H416.595V21.1139ZM428.496 21.1139H437.119V12.4855H428.496V21.1139ZM452.211 21.1139H460.834V12.4855H452.211V21.1139ZM476.012 21.1139H484.635V12.4855H476.012V21.1139ZM523.614 21.1139H532.238V12.4855H523.614V21.1139ZM535.515 21.1139H544.138V12.4855H535.515V21.1139ZM559.316 21.1139H567.939V12.4855H559.316V21.1139ZM594.931 21.1139H603.555V12.4855H594.931V21.1139ZM606.832 21.1139H615.455V12.4855H606.832V21.1139ZM630.633 21.1139H639.257V12.4855H630.633V21.1139ZM642.534 21.1139H651.157V12.4855H642.534V21.1139ZM0.333984 32.6759H8.95759V24.0475H0.333984V32.6759ZM24.1351 32.6759H32.7587V24.0475H24.1351V32.6759ZM47.9363 32.6759H56.5599V24.0475H47.9363V32.6759ZM59.8368 32.6759H68.4604V24.0475H59.8368V32.6759ZM71.6512 32.6759H80.2748V24.0475H71.6512V32.6759ZM83.5517 32.6759H92.1753V24.0475H83.5517V32.6759ZM95.4523 32.6759H104.076V24.0475H95.4523V32.6759ZM107.353 32.6759H115.976V24.0475H107.353V32.6759ZM119.253 32.6759H127.877V24.0475H119.253V32.6759ZM143.055 32.6759H151.678V24.0475H143.055V32.6759ZM166.856 32.6759H175.479V24.0475H166.856V32.6759ZM178.756 32.6759H187.38V24.0475H178.756V32.6759ZM190.657 32.6759H199.28V24.0475H190.657V32.6759ZM202.471 32.6759H211.095V24.0475H202.471V32.6759ZM214.372 32.6759H222.995V24.0475H214.372V32.6759ZM226.272 32.6759H234.896V24.0475H226.272V32.6759ZM238.173 32.6759H246.796V24.0475H238.173V32.6759ZM261.974 32.6759H270.598V24.0475H261.974V32.6759ZM285.775 32.6759H294.399V24.0475H285.775V32.6759ZM309.576 32.6759H318.2V24.0475H309.576V32.6759ZM321.477 32.6759H330.1V24.0475H321.477V32.6759ZM345.192 32.6759H353.815V24.0475H345.192V32.6759ZM357.092 32.6759H365.716V24.0475H357.092V32.6759ZM380.893 32.6759H389.517V24.0475H380.893V32.6759ZM392.794 32.6759H401.418V24.0475H392.794V32.6759ZM416.595 32.6759H425.219V24.0475H416.595V32.6759ZM428.496 32.6759H437.119V24.0475H428.496V32.6759ZM476.012 32.6759H484.635V24.0475H476.012V32.6759ZM511.714 32.6759H520.337V24.0475H511.714V32.6759ZM523.614 32.6759H532.238V24.0475H523.614V32.6759ZM535.515 32.6759H544.138V24.0475H535.515V32.6759ZM559.316 32.6759H567.939V24.0475H559.316V32.6759ZM571.216 32.6759H579.84V24.0475H571.216V32.6759ZM583.031 32.6759H591.654V24.0475H583.031V32.6759ZM594.931 32.6759H603.555V24.0475H594.931V32.6759ZM606.832 32.6759H615.455V24.0475H606.832V32.6759ZM630.633 32.6759H639.257V24.0475H630.633V32.6759ZM642.534 32.6759H651.157V24.0475H642.534V32.6759ZM12.2346 44.238H20.8582V35.6096H12.2346V44.238ZM36.0357 44.238H44.6593V35.6096H36.0357V44.238ZM47.9363 44.238H56.5599V35.6096H47.9363V44.238ZM83.5517 44.238H92.1753V35.6096H83.5517V44.238ZM95.4523 44.238H104.076V35.6096H95.4523V44.238ZM273.875 44.238H282.498V35.6096H273.875V44.238ZM285.775 44.238H294.399V35.6096H285.775V44.238ZM309.576 44.238H318.2V35.6096H309.576V44.238ZM321.477 44.238H330.1V35.6096H321.477V44.238ZM333.291 44.238H341.915V35.6096H333.291V44.238ZM345.192 44.238H353.815V35.6096H345.192V44.238ZM368.993 44.238H377.617V35.6096H368.993V44.238ZM380.893 44.238H389.517V35.6096H380.893V44.238ZM392.794 44.238H401.418V35.6096H392.794V44.238ZM428.496 44.238H437.119V35.6096H428.496V44.238ZM476.012 44.238H484.635V35.6096H476.012V44.238ZM487.912 44.238H496.536V35.6096H487.912V44.238ZM499.813 44.238H508.437V35.6096H499.813V44.238ZM511.714 44.238H520.337V35.6096H511.714V44.238ZM535.515 44.238H544.138V35.6096H535.515V44.238ZM559.316 44.238H567.939V35.6096H559.316V44.238ZM571.216 44.238H579.84V35.6096H571.216V44.238ZM606.832 44.238H615.455V35.6096H606.832V44.238ZM618.732 44.238H627.356V35.6096H618.732V44.238ZM630.633 44.238H639.257V35.6096H630.633V44.238ZM24.1351 55.8863H32.7587V47.2579H24.1351V55.8863ZM36.0357 55.8863H44.6593V47.2579H36.0357V55.8863ZM47.9363 55.8863H56.5599V47.2579H47.9363V55.8863ZM59.8368 55.8863H68.4604V47.2579H59.8368V55.8863ZM71.6512 55.8863H80.2748V47.2579H71.6512V55.8863ZM95.4523 55.8863H104.076V47.2579H95.4523V55.8863ZM107.353 55.8863H115.976V47.2579H107.353V55.8863ZM143.055 55.8863H151.678V47.2579H143.055V55.8863ZM166.856 55.8863H175.479V47.2579H166.856V55.8863ZM178.756 55.8863H187.38V47.2579H178.756V55.8863ZM202.471 55.8863H211.095V47.2579H202.471V55.8863ZM250.073 55.8863H258.697V47.2579H250.073V55.8863ZM261.974 55.8863H270.598V47.2579H261.974V55.8863ZM273.875 55.8863H282.498V47.2579H273.875V55.8863ZM297.676 55.8863H306.299V47.2579H297.676V55.8863ZM309.576 55.8863H318.2V47.2579H309.576V55.8863ZM333.291 55.8863H341.915V47.2579H333.291V55.8863ZM345.192 55.8863H353.815V47.2579H345.192V55.8863ZM368.993 55.8863H377.617V47.2579H368.993V55.8863ZM380.893 55.8863H389.517V47.2579H380.893V55.8863ZM392.794 55.8863H401.418V47.2579H392.794V55.8863ZM404.695 55.8863H413.318V47.2579H404.695V55.8863ZM428.496 55.8863H437.119V47.2579H428.496V55.8863ZM440.396 55.8863H449.02V47.2579H440.396V55.8863ZM464.111 55.8863H472.735V47.2579H464.111V55.8863ZM476.012 55.8863H484.635V47.2579H476.012V55.8863ZM487.912 55.8863H496.536V47.2579H487.912V55.8863ZM511.714 55.8863H520.337V47.2579H511.714V55.8863ZM523.614 55.8863H532.238V47.2579H523.614V55.8863ZM535.515 55.8863H544.138V47.2579H535.515V55.8863ZM559.316 55.8863H567.939V47.2579H559.316V55.8863ZM583.031 55.8863H591.654V47.2579H583.031V55.8863ZM606.832 55.8863H615.455V47.2579H606.832V55.8863ZM630.633 55.8863H639.257V47.2579H630.633V55.8863ZM642.534 55.8863H651.157V47.2579H642.534V55.8863ZM36.0357 67.4483H44.6593V58.8199H36.0357V67.4483ZM59.8368 67.4483H68.4604V58.8199H59.8368V67.4483ZM71.6512 67.4483H80.2748V58.8199H71.6512V67.4483ZM83.5517 67.4483H92.1753V58.8199H83.5517V67.4483ZM107.353 67.4483H115.976V58.8199H107.353V67.4483ZM143.055 67.4483H151.678V58.8199H143.055V67.4483ZM154.955 67.4483H163.579V58.8199H154.955V67.4483ZM190.657 67.4483H199.28V58.8199H190.657V67.4483ZM202.471 67.4483H211.095V58.8199H202.471V67.4483ZM214.372 67.4483H222.995V58.8199H214.372V67.4483ZM238.173 67.4483H246.796V58.8199H238.173V67.4483ZM261.974 67.4483H270.598V58.8199H261.974V67.4483ZM285.775 67.4483H294.399V58.8199H285.775V67.4483ZM297.676 67.4483H306.299V58.8199H297.676V67.4483ZM321.477 67.4483H330.1V58.8199H321.477V67.4483ZM368.993 67.4483H377.617V58.8199H368.993V67.4483ZM380.893 67.4483H389.517V58.8199H380.893V67.4483ZM404.695 67.4483H413.318V58.8199H404.695V67.4483ZM416.595 67.4483H425.219V58.8199H416.595V67.4483ZM428.496 67.4483H437.119V58.8199H428.496V67.4483ZM464.111 67.4483H472.735V58.8199H464.111V67.4483ZM476.012 67.4483H484.635V58.8199H476.012V67.4483ZM487.912 67.4483H496.536V58.8199H487.912V67.4483ZM511.714 67.4483H520.337V58.8199H511.714V67.4483ZM523.614 67.4483H532.238V58.8199H523.614V67.4483ZM547.415 67.4483H556.039V58.8199H547.415V67.4483ZM571.216 67.4483H579.84V58.8199H571.216V67.4483ZM583.031 67.4483H591.654V58.8199H583.031V67.4483ZM606.832 67.4483H615.455V58.8199H606.832V67.4483ZM618.732 67.4483H627.356V58.8199H618.732V67.4483ZM630.633 67.4483H639.257V58.8199H630.633V67.4483ZM12.2346 79.0104H20.8582V70.382H12.2346V79.0104ZM24.1351 79.0104H32.7587V70.382H24.1351V79.0104ZM36.0357 79.0104H44.6593V70.382H36.0357V79.0104ZM83.5517 79.0104H92.1753V70.382H83.5517V79.0104ZM107.353 79.0104H115.976V70.382H107.353V79.0104ZM154.955 79.0104H163.579V70.382H154.955V79.0104ZM166.856 79.0104H175.479V70.382H166.856V79.0104ZM178.756 79.0104H187.38V70.382H178.756V79.0104ZM214.372 79.0104H222.995V70.382H214.372V79.0104ZM238.173 79.0104H246.796V70.382H238.173V79.0104ZM250.073 79.0104H258.697V70.382H250.073V79.0104ZM261.974 79.0104H270.598V70.382H261.974V79.0104ZM273.875 79.0104H282.498V70.382H273.875V79.0104ZM285.775 79.0104H294.399V70.382H285.775V79.0104ZM309.576 79.0104H318.2V70.382H309.576V79.0104ZM321.477 79.0104H330.1V70.382H321.477V79.0104ZM392.794 79.0104H401.418V70.382H392.794V79.0104ZM404.695 79.0104H413.318V70.382H404.695V79.0104ZM428.496 79.0104H437.119V70.382H428.496V79.0104ZM440.396 79.0104H449.02V70.382H440.396V79.0104ZM452.211 79.0104H460.834V70.382H452.211V79.0104ZM476.012 79.0104H484.635V70.382H476.012V79.0104ZM487.912 79.0104H496.536V70.382H487.912V79.0104ZM559.316 79.0104H567.939V70.382H559.316V79.0104ZM583.031 79.0104H591.654V70.382H583.031V79.0104ZM618.732 79.0104H627.356V70.382H618.732V79.0104ZM642.534 79.0104H651.157V70.382H642.534V79.0104ZM24.1351 90.5724H32.7587V81.944H24.1351V90.5724ZM36.0357 90.5724H44.6593V81.944H36.0357V90.5724ZM47.9363 90.5724H56.5599V81.944H47.9363V90.5724ZM95.4523 90.5724H104.076V81.944H95.4523V90.5724ZM107.353 90.5724H115.976V81.944H107.353V90.5724ZM131.154 90.5724H139.778V81.944H131.154V90.5724ZM143.055 90.5724H151.678V81.944H143.055V90.5724ZM166.856 90.5724H175.479V81.944H166.856V90.5724ZM178.756 90.5724H187.38V81.944H178.756V90.5724ZM202.471 90.5724H211.095V81.944H202.471V90.5724ZM214.372 90.5724H222.995V81.944H214.372V90.5724ZM238.173 90.5724H246.796V81.944H238.173V90.5724ZM250.073 90.5724H258.697V81.944H250.073V90.5724ZM273.875 90.5724H282.498V81.944H273.875V90.5724ZM321.477 90.5724H330.1V81.944H321.477V90.5724ZM345.192 90.5724H353.815V81.944H345.192V90.5724ZM392.794 90.5724H401.418V81.944H392.794V90.5724ZM404.695 90.5724H413.318V81.944H404.695V90.5724ZM416.595 90.5724H425.219V81.944H416.595V90.5724ZM428.496 90.5724H437.119V81.944H428.496V90.5724ZM440.396 90.5724H449.02V81.944H440.396V90.5724ZM452.211 90.5724H460.834V81.944H452.211V90.5724ZM464.111 90.5724H472.735V81.944H464.111V90.5724ZM487.912 90.5724H496.536V81.944H487.912V90.5724ZM547.415 90.5724H556.039V81.944H547.415V90.5724ZM559.316 90.5724H567.939V81.944H559.316V90.5724ZM594.931 90.5724H603.555V81.944H594.931V90.5724ZM606.832 90.5724H615.455V81.944H606.832V90.5724ZM618.732 90.5724H627.356V81.944H618.732V90.5724ZM630.633 90.5724H639.257V81.944H630.633V90.5724ZM642.534 90.5724H651.157V81.944H642.534V90.5724ZM12.2346 102.134H20.8582V93.5061H12.2346V102.134ZM36.0357 102.134H44.6593V93.5061H36.0357V102.134ZM47.9363 102.134H56.5599V93.5061H47.9363V102.134ZM71.6512 102.134H80.2748V93.5061H71.6512V102.134ZM83.5517 102.134H92.1753V93.5061H83.5517V102.134ZM107.353 102.134H115.976V93.5061H107.353V102.134ZM119.253 102.134H127.877V93.5061H119.253V102.134ZM131.154 102.134H139.778V93.5061H131.154V102.134ZM143.055 102.134H151.678V93.5061H143.055V102.134ZM154.955 102.134H163.579V93.5061H154.955V102.134ZM178.756 102.134H187.38V93.5061H178.756V102.134ZM190.657 102.134H199.28V93.5061H190.657V102.134ZM214.372 102.134H222.995V93.5061H214.372V102.134ZM238.173 102.134H246.796V93.5061H238.173V102.134ZM261.974 102.134H270.598V93.5061H261.974V102.134ZM273.875 102.134H282.498V93.5061H273.875V102.134ZM321.477 102.134H330.1V93.5061H321.477V102.134ZM345.192 102.134H353.815V93.5061H345.192V102.134ZM404.695 102.134H413.318V93.5061H404.695V102.134ZM464.111 102.134H472.735V93.5061H464.111V102.134ZM476.012 102.134H484.635V93.5061H476.012V102.134ZM487.912 102.134H496.536V93.5061H487.912V102.134ZM511.714 102.134H520.337V93.5061H511.714V102.134ZM523.614 102.134H532.238V93.5061H523.614V102.134ZM559.316 102.134H567.939V93.5061H559.316V102.134ZM594.931 102.134H603.555V93.5061H594.931V102.134ZM618.732 102.134H627.356V93.5061H618.732V102.134ZM642.534 102.134H651.157V93.5061H642.534V102.134ZM0.333984 113.783H8.95759V105.154H0.333984V113.783ZM12.2346 113.783H20.8582V105.154H12.2346V113.783ZM24.1351 113.783H32.7587V105.154H24.1351V113.783ZM36.0357 113.783H44.6593V105.154H36.0357V113.783ZM47.9363 113.783H56.5599V105.154H47.9363V113.783ZM59.8368 113.783H68.4604V105.154H59.8368V113.783ZM71.6512 113.783H80.2748V105.154H71.6512V113.783ZM95.4523 113.783H104.076V105.154H95.4523V113.783ZM119.253 113.783H127.877V105.154H119.253V113.783ZM131.154 113.783H139.778V105.154H131.154V113.783ZM166.856 113.783H175.479V105.154H166.856V113.783ZM190.657 113.783H199.28V105.154H190.657V113.783ZM202.471 113.783H211.095V105.154H202.471V113.783ZM214.372 113.783H222.995V105.154H214.372V113.783ZM238.173 113.783H246.796V105.154H238.173V113.783ZM250.073 113.783H258.697V105.154H250.073V113.783ZM273.875 113.783H282.498V105.154H273.875V113.783ZM321.477 113.783H330.1V105.154H321.477V113.783ZM333.291 113.783H341.915V105.154H333.291V113.783ZM345.192 113.783H353.815V105.154H345.192V113.783ZM368.993 113.783H377.617V105.154H368.993V113.783ZM380.893 113.783H389.517V105.154H380.893V113.783ZM392.794 113.783H401.418V105.154H392.794V113.783ZM404.695 113.783H413.318V105.154H404.695V113.783ZM452.211 113.783H460.834V105.154H452.211V113.783ZM464.111 113.783H472.735V105.154H464.111V113.783ZM0.333984 125.345H8.95759V116.716H0.333984V125.345ZM24.1351 125.345H32.7587V116.716H24.1351V125.345ZM36.0357 125.345H44.6593V116.716H36.0357V125.345ZM71.6512 125.345H80.2748V116.716H71.6512V125.345ZM83.5517 125.345H92.1753V116.716H83.5517V125.345ZM107.353 125.345H115.976V116.716H107.353V125.345ZM119.253 125.345H127.877V116.716H119.253V125.345ZM131.154 125.345H139.778V116.716H131.154V125.345ZM143.055 125.345H151.678V116.716H143.055V125.345ZM154.955 125.345H163.579V116.716H154.955V125.345ZM166.856 125.345H175.479V116.716H166.856V125.345ZM178.756 125.345H187.38V116.716H178.756V125.345ZM190.657 125.345H199.28V116.716H190.657V125.345ZM214.372 125.345H222.995V116.716H214.372V125.345ZM250.073 125.345H258.697V116.716H250.073V125.345ZM261.974 125.345H270.598V116.716H261.974V125.345ZM273.875 125.345H282.498V116.716H273.875V125.345ZM285.775 125.345H294.399V116.716H285.775V125.345ZM297.676 125.345H306.299V116.716H297.676V125.345ZM321.477 125.345H330.1V116.716H321.477V125.345ZM333.291 125.345H341.915V116.716H333.291V125.345ZM345.192 125.345H353.815V116.716H345.192V125.345ZM368.993 125.345H377.617V116.716H368.993V125.345ZM392.794 125.345H401.418V116.716H392.794V125.345ZM416.595 125.345H425.219V116.716H416.595V125.345ZM440.396 125.345H449.02V116.716H440.396V125.345ZM452.211 125.345H460.834V116.716H452.211V125.345ZM464.111 125.345H472.735V116.716H464.111V125.345ZM12.2346 136.907H20.8582V128.278H12.2346V136.907ZM24.1351 136.907H32.7587V128.278H24.1351V136.907ZM36.0357 136.907H44.6593V128.278H36.0357V136.907ZM71.6512 136.907H80.2748V128.278H71.6512V136.907ZM83.5517 136.907H92.1753V128.278H83.5517V136.907ZM95.4523 136.907H104.076V128.278H95.4523V136.907ZM107.353 136.907H115.976V128.278H107.353V136.907ZM143.055 136.907H151.678V128.278H143.055V136.907ZM154.955 136.907H163.579V128.278H154.955V136.907ZM190.657 136.907H199.28V128.278H190.657V136.907ZM214.372 136.907H222.995V128.278H214.372V136.907ZM238.173 136.907H246.796V128.278H238.173V136.907ZM273.875 136.907H282.498V128.278H273.875V136.907ZM297.676 136.907H306.299V128.278H297.676V136.907ZM309.576 136.907H318.2V128.278H309.576V136.907ZM321.477 136.907H330.1V128.278H321.477V136.907ZM345.192 136.907H353.815V128.278H345.192V136.907ZM357.092 136.907H365.716V128.278H357.092V136.907ZM368.993 136.907H377.617V128.278H368.993V136.907ZM380.893 136.907H389.517V128.278H380.893V136.907ZM404.695 136.907H413.318V128.278H404.695V136.907ZM428.496 136.907H437.119V128.278H428.496V136.907ZM440.396 136.907H449.02V128.278H440.396V136.907ZM464.111 136.907H472.735V128.278H464.111V136.907ZM476.012 136.907H484.635V128.278H476.012V136.907ZM523.614 136.907H532.238V128.278H523.614V136.907ZM547.415 136.907H556.039V128.278H547.415V136.907ZM571.216 136.907H579.84V128.278H571.216V136.907ZM594.931 136.907H603.555V128.278H594.931V136.907ZM618.732 136.907H627.356V128.278H618.732V136.907ZM630.633 136.907H639.257V128.278H630.633V136.907ZM642.534 136.907H651.157V128.278H642.534V136.907ZM0.333984 148.469H8.95759V139.84H0.333984V148.469ZM12.2346 148.469H20.8582V139.84H12.2346V148.469ZM36.0357 148.469H44.6593V139.84H36.0357V148.469ZM154.955 148.469H163.579V139.84H154.955V148.469ZM178.756 148.469H187.38V139.84H178.756V148.469ZM202.471 148.469H211.095V139.84H202.471V148.469ZM214.372 148.469H222.995V139.84H214.372V148.469ZM238.173 148.469H246.796V139.84H238.173V148.469ZM250.073 148.469H258.697V139.84H250.073V148.469ZM261.974 148.469H270.598V139.84H261.974V148.469ZM273.875 148.469H282.498V139.84H273.875V148.469ZM285.775 148.469H294.399V139.84H285.775V148.469ZM297.676 148.469H306.299V139.84H297.676V148.469ZM309.576 148.469H318.2V139.84H309.576V148.469ZM333.291 148.469H341.915V139.84H333.291V148.469ZM357.092 148.469H365.716V139.84H357.092V148.469ZM368.993 148.469H377.617V139.84H368.993V148.469ZM392.794 148.469H401.418V139.84H392.794V148.469ZM404.695 148.469H413.318V139.84H404.695V148.469ZM416.595 148.469H425.219V139.84H416.595V148.469ZM452.211 148.469H460.834V139.84H452.211V148.469ZM464.111 148.469H472.735V139.84H464.111V148.469ZM476.012 148.469H484.635V139.84H476.012V148.469ZM523.614 148.469H532.238V139.84H523.614V148.469ZM535.515 148.469H544.138V139.84H535.515V148.469ZM547.415 148.469H556.039V139.84H547.415V148.469ZM559.316 148.469H567.939V139.84H559.316V148.469ZM583.031 148.469H591.654V139.84H583.031V148.469ZM594.931 148.469H603.555V139.84H594.931V148.469ZM618.732 148.469H627.356V139.84H618.732V148.469ZM630.633 148.469H639.257V139.84H630.633V148.469ZM642.534 148.469H651.157V139.84H642.534V148.469ZM0.333984 160.031H8.95759V151.403H0.333984V160.031ZM12.2346 160.031H20.8582V151.403H12.2346V160.031ZM36.0357 160.031H44.6593V151.403H36.0357V160.031ZM83.5517 160.031H92.1753V151.403H83.5517V160.031ZM131.154 160.031H139.778V151.403H131.154V160.031ZM154.955 160.031H163.579V151.403H154.955V160.031ZM166.856 160.031H175.479V151.403H166.856V160.031ZM178.756 160.031H187.38V151.403H178.756V160.031ZM202.471 160.031H211.095V151.403H202.471V160.031ZM214.372 160.031H222.995V151.403H214.372V160.031ZM226.272 160.031H234.896V151.403H226.272V160.031ZM238.173 160.031H246.796V151.403H238.173V160.031ZM250.073 160.031H258.697V151.403H250.073V160.031ZM273.875 160.031H282.498V151.403H273.875V160.031ZM297.676 160.031H306.299V151.403H297.676V160.031ZM309.576 160.031H318.2V151.403H309.576V160.031ZM345.192 160.031H353.815V151.403H345.192V160.031ZM357.092 160.031H365.716V151.403H357.092V160.031ZM392.794 160.031H401.418V151.403H392.794V160.031ZM404.695 160.031H413.318V151.403H404.695V160.031ZM428.496 160.031H437.119V151.403H428.496V160.031ZM440.396 160.031H449.02V151.403H440.396V160.031ZM452.211 160.031H460.834V151.403H452.211V160.031ZM523.614 160.031H532.238V151.403H523.614V160.031ZM547.415 160.031H556.039V151.403H547.415V160.031ZM571.216 160.031H579.84V151.403H571.216V160.031ZM594.931 160.031H603.555V151.403H594.931V160.031ZM606.832 160.031H615.455V151.403H606.832V160.031ZM630.633 160.031H639.257V151.403H630.633V160.031ZM0.333984 171.593H8.95759V162.965H0.333984V171.593ZM24.1351 171.593H32.7587V162.965H24.1351V171.593ZM47.9363 171.593H56.5599V162.965H47.9363V171.593ZM83.5517 171.593H92.1753V162.965H83.5517V171.593ZM143.055 171.593H151.678V162.965H143.055V171.593ZM154.955 171.593H163.579V162.965H154.955V171.593ZM166.856 171.593H175.479V162.965H166.856V171.593ZM178.756 171.593H187.38V162.965H178.756V171.593ZM202.471 171.593H211.095V162.965H202.471V171.593ZM214.372 171.593H222.995V162.965H214.372V171.593ZM226.272 171.593H234.896V162.965H226.272V171.593ZM238.173 171.593H246.796V162.965H238.173V171.593ZM261.974 171.593H270.598V162.965H261.974V171.593ZM273.875 171.593H282.498V162.965H273.875V171.593ZM285.775 171.593H294.399V162.965H285.775V171.593ZM321.477 171.593H330.1V162.965H321.477V171.593ZM333.291 171.593H341.915V162.965H333.291V171.593ZM345.192 171.593H353.815V162.965H345.192V171.593ZM357.092 171.593H365.716V162.965H357.092V171.593ZM404.695 171.593H413.318V162.965H404.695V171.593ZM416.595 171.593H425.219V162.965H416.595V171.593ZM440.396 171.593H449.02V162.965H440.396V171.593ZM452.211 171.593H460.834V162.965H452.211V171.593ZM499.813 171.593H508.437V162.965H499.813V171.593ZM511.714 171.593H520.337V162.965H511.714V171.593ZM523.614 171.593H532.238V162.965H523.614V171.593ZM535.515 171.593H544.138V162.965H535.515V171.593ZM547.415 171.593H556.039V162.965H547.415V171.593ZM583.031 171.593H591.654V162.965H583.031V171.593ZM594.931 171.593H603.555V162.965H594.931V171.593ZM630.633 171.593H639.257V162.965H630.633V171.593ZM642.534 171.593H651.157V162.965H642.534V171.593ZM0.333984 183.155H8.95759V174.527H0.333984V183.155ZM12.2346 183.155H20.8582V174.527H12.2346V183.155ZM24.1351 183.155H32.7587V174.527H24.1351V183.155ZM36.0357 183.155H44.6593V174.527H36.0357V183.155ZM59.8368 183.155H68.4604V174.527H59.8368V183.155ZM71.6512 183.155H80.2748V174.527H71.6512V183.155ZM83.5517 183.155H92.1753V174.527H83.5517V183.155ZM95.4523 183.155H104.076V174.527H95.4523V183.155ZM107.353 183.155H115.976V174.527H107.353V183.155ZM178.756 183.155H187.38V174.527H178.756V183.155ZM190.657 183.155H199.28V174.527H190.657V183.155ZM202.471 183.155H211.095V174.527H202.471V183.155ZM238.173 183.155H246.796V174.527H238.173V183.155ZM250.073 183.155H258.697V174.527H250.073V183.155ZM261.974 183.155H270.598V174.527H261.974V183.155ZM273.875 183.155H282.498V174.527H273.875V183.155ZM285.775 183.155H294.399V174.527H285.775V183.155ZM297.676 183.155H306.299V174.527H297.676V183.155ZM309.576 183.155H318.2V174.527H309.576V183.155ZM321.477 183.155H330.1V174.527H321.477V183.155ZM345.192 183.155H353.815V174.527H345.192V183.155ZM357.092 183.155H365.716V174.527H357.092V183.155ZM368.993 183.155H377.617V174.527H368.993V183.155ZM404.695 183.155H413.318V174.527H404.695V183.155ZM416.595 183.155H425.219V174.527H416.595V183.155ZM428.496 183.155H437.119V174.527H428.496V183.155ZM452.211 183.155H460.834V174.527H452.211V183.155ZM499.813 183.155H508.437V174.527H499.813V183.155ZM511.714 183.155H520.337V174.527H511.714V183.155ZM547.415 183.155H556.039V174.527H547.415V183.155ZM559.316 183.155H567.939V174.527H559.316V183.155ZM571.216 183.155H579.84V174.527H571.216V183.155ZM594.931 183.155H603.555V174.527H594.931V183.155ZM606.832 183.155H615.455V174.527H606.832V183.155ZM618.732 183.155H627.356V174.527H618.732V183.155ZM630.633 183.155H639.257V174.527H630.633V183.155ZM642.534 183.155H651.157V174.527H642.534V183.155ZM0.333984 194.803H8.95759V186.175H0.333984V194.803ZM24.1351 194.803H32.7587V186.175H24.1351V194.803ZM36.0357 194.803H44.6593V186.175H36.0357V194.803ZM59.8368 194.803H68.4604V186.175H59.8368V194.803ZM95.4523 194.803H104.076V186.175H95.4523V194.803ZM107.353 194.803H115.976V186.175H107.353V194.803ZM131.154 194.803H139.778V186.175H131.154V194.803ZM143.055 194.803H151.678V186.175H143.055V194.803ZM154.955 194.803H163.579V186.175H154.955V194.803ZM166.856 194.803H175.479V186.175H166.856V194.803ZM190.657 194.803H199.28V186.175H190.657V194.803ZM202.471 194.803H211.095V186.175H202.471V194.803ZM297.676 194.803H306.299V186.175H297.676V194.803ZM309.576 194.803H318.2V186.175H309.576V194.803ZM333.291 194.803H341.915V186.175H333.291V194.803ZM345.192 194.803H353.815V186.175H345.192V194.803ZM357.092 194.803H365.716V186.175H357.092V194.803ZM368.993 194.803H377.617V186.175H368.993V194.803ZM392.794 194.803H401.418V186.175H392.794V194.803ZM404.695 194.803H413.318V186.175H404.695V194.803ZM416.595 194.803H425.219V186.175H416.595V194.803ZM428.496 194.803H437.119V186.175H428.496V194.803ZM452.211 194.803H460.834V186.175H452.211V194.803ZM464.111 194.803H472.735V186.175H464.111V194.803ZM476.012 194.803H484.635V186.175H476.012V194.803ZM487.912 194.803H496.536V186.175H487.912V194.803ZM594.931 194.803H603.555V186.175H594.931V194.803ZM618.732 194.803H627.356V186.175H618.732V194.803ZM642.534 194.803H651.157V186.175H642.534V194.803ZM0.333984 206.365H8.95759V197.737H0.333984V206.365ZM12.2346 206.365H20.8582V197.737H12.2346V206.365ZM24.1351 206.365H32.7587V197.737H24.1351V206.365ZM47.9363 206.365H56.5599V197.737H47.9363V206.365ZM59.8368 206.365H68.4604V197.737H59.8368V206.365ZM95.4523 206.365H104.076V197.737H95.4523V206.365ZM131.154 206.365H139.778V197.737H131.154V206.365ZM154.955 206.365H163.579V197.737H154.955V206.365ZM178.756 206.365H187.38V197.737H178.756V206.365ZM202.471 206.365H211.095V197.737H202.471V206.365ZM261.974 206.365H270.598V197.737H261.974V206.365ZM273.875 206.365H282.498V197.737H273.875V206.365ZM285.775 206.365H294.399V197.737H285.775V206.365ZM309.576 206.365H318.2V197.737H309.576V206.365ZM321.477 206.365H330.1V197.737H321.477V206.365ZM333.291 206.365H341.915V197.737H333.291V206.365ZM345.192 206.365H353.815V197.737H345.192V206.365ZM357.092 206.365H365.716V197.737H357.092V206.365ZM368.993 206.365H377.617V197.737H368.993V206.365ZM380.893 206.365H389.517V197.737H380.893V206.365ZM392.794 206.365H401.418V197.737H392.794V206.365ZM416.595 206.365H425.219V197.737H416.595V206.365ZM440.396 206.365H449.02V197.737H440.396V206.365ZM452.211 206.365H460.834V197.737H452.211V206.365ZM476.012 206.365H484.635V197.737H476.012V206.365ZM499.813 206.365H508.437V197.737H499.813V206.365ZM547.415 206.365H556.039V197.737H547.415V206.365ZM559.316 206.365H567.939V197.737H559.316V206.365ZM571.216 206.365H579.84V197.737H571.216V206.365ZM594.931 206.365H603.555V197.737H594.931V206.365ZM606.832 206.365H615.455V197.737H606.832V206.365ZM618.732 206.365H627.356V197.737H618.732V206.365ZM0.333984 217.927H8.95759V209.299H0.333984V217.927ZM24.1351 217.927H32.7587V209.299H24.1351V217.927ZM36.0357 217.927H44.6593V209.299H36.0357V217.927ZM59.8368 217.927H68.4604V209.299H59.8368V217.927ZM71.6512 217.927H80.2748V209.299H71.6512V217.927ZM83.5517 217.927H92.1753V209.299H83.5517V217.927ZM95.4523 217.927H104.076V209.299H95.4523V217.927ZM131.154 217.927H139.778V209.299H131.154V217.927ZM143.055 217.927H151.678V209.299H143.055V217.927ZM154.955 217.927H163.579V209.299H154.955V217.927ZM166.856 217.927H175.479V209.299H166.856V217.927ZM190.657 217.927H199.28V209.299H190.657V217.927ZM202.471 217.927H211.095V209.299H202.471V217.927ZM250.073 217.927H258.697V209.299H250.073V217.927ZM261.974 217.927H270.598V209.299H261.974V217.927ZM285.775 217.927H294.399V209.299H285.775V217.927ZM297.676 217.927H306.299V209.299H297.676V217.927ZM321.477 217.927H330.1V209.299H321.477V217.927ZM333.291 217.927H341.915V209.299H333.291V217.927ZM357.092 217.927H365.716V209.299H357.092V217.927ZM392.794 217.927H401.418V209.299H392.794V217.927ZM404.695 217.927H413.318V209.299H404.695V217.927ZM428.496 217.927H437.119V209.299H428.496V217.927ZM440.396 217.927H449.02V209.299H440.396V217.927ZM452.211 217.927H460.834V209.299H452.211V217.927ZM464.111 217.927H472.735V209.299H464.111V217.927ZM476.012 217.927H484.635V209.299H476.012V217.927ZM487.912 217.927H496.536V209.299H487.912V217.927ZM499.813 217.927H508.437V209.299H499.813V217.927ZM547.415 217.927H556.039V209.299H547.415V217.927ZM559.316 217.927H567.939V209.299H559.316V217.927ZM594.931 217.927H603.555V209.299H594.931V217.927ZM630.633 217.927H639.257V209.299H630.633V217.927ZM642.534 217.927H651.157V209.299H642.534V217.927ZM0.333984 229.489H8.95759V220.861H0.333984V229.489ZM12.2346 229.489H20.8582V220.861H12.2346V229.489ZM36.0357 229.489H44.6593V220.861H36.0357V229.489ZM59.8368 229.489H68.4604V220.861H59.8368V229.489ZM83.5517 229.489H92.1753V220.861H83.5517V229.489ZM107.353 229.489H115.976V220.861H107.353V229.489ZM119.253 229.489H127.877V220.861H119.253V229.489ZM131.154 229.489H139.778V220.861H131.154V229.489ZM154.955 229.489H163.579V220.861H154.955V229.489ZM166.856 229.489H175.479V220.861H166.856V229.489ZM178.756 229.489H187.38V220.861H178.756V229.489ZM202.471 229.489H211.095V220.861H202.471V229.489ZM214.372 229.489H222.995V220.861H214.372V229.489ZM226.272 229.489H234.896V220.861H226.272V229.489ZM238.173 229.489H246.796V220.861H238.173V229.489ZM250.073 229.489H258.697V220.861H250.073V229.489ZM261.974 229.489H270.598V220.861H261.974V229.489ZM285.775 229.489H294.399V220.861H285.775V229.489ZM297.676 229.489H306.299V220.861H297.676V229.489ZM321.477 229.489H330.1V220.861H321.477V229.489ZM345.192 229.489H353.815V220.861H345.192V229.489ZM357.092 229.489H365.716V220.861H357.092V229.489ZM368.993 229.489H377.617V220.861H368.993V229.489ZM380.893 229.489H389.517V220.861H380.893V229.489ZM392.794 229.489H401.418V220.861H392.794V229.489ZM416.595 229.489H425.219V220.861H416.595V229.489ZM440.396 229.489H449.02V220.861H440.396V229.489ZM464.111 229.489H472.735V220.861H464.111V229.489ZM476.012 229.489H484.635V220.861H476.012V229.489ZM499.813 229.489H508.437V220.861H499.813V229.489ZM511.714 229.489H520.337V220.861H511.714V229.489ZM535.515 229.489H544.138V220.861H535.515V229.489ZM547.415 229.489H556.039V220.861H547.415V229.489ZM559.316 229.489H567.939V220.861H559.316V229.489ZM571.216 229.489H579.84V220.861H571.216V229.489ZM594.931 229.489H603.555V220.861H594.931V229.489ZM606.832 229.489H615.455V220.861H606.832V229.489ZM630.633 229.489H639.257V220.861H630.633V229.489ZM642.534 229.489H651.157V220.861H642.534V229.489ZM0.333984 241.051H8.95759V232.423H0.333984V241.051ZM12.2346 241.051H20.8582V232.423H12.2346V241.051ZM24.1351 241.051H32.7587V232.423H24.1351V241.051ZM36.0357 241.051H44.6593V232.423H36.0357V241.051ZM47.9363 241.051H56.5599V232.423H47.9363V241.051ZM71.6512 241.051H80.2748V232.423H71.6512V241.051ZM83.5517 241.051H92.1753V232.423H83.5517V241.051ZM95.4523 241.051H104.076V232.423H95.4523V241.051ZM107.353 241.051H115.976V232.423H107.353V241.051ZM119.253 241.051H127.877V232.423H119.253V241.051ZM143.055 241.051H151.678V232.423H143.055V241.051ZM154.955 241.051H163.579V232.423H154.955V241.051ZM166.856 241.051H175.479V232.423H166.856V241.051ZM178.756 241.051H187.38V232.423H178.756V241.051ZM190.657 241.051H199.28V232.423H190.657V241.051ZM202.471 241.051H211.095V232.423H202.471V241.051ZM226.272 241.051H234.896V232.423H226.272V241.051ZM250.073 241.051H258.697V232.423H250.073V241.051ZM261.974 241.051H270.598V232.423H261.974V241.051ZM273.875 241.051H282.498V232.423H273.875V241.051ZM285.775 241.051H294.399V232.423H285.775V241.051ZM297.676 241.051H306.299V232.423H297.676V241.051ZM309.576 241.051H318.2V232.423H309.576V241.051ZM321.477 241.051H330.1V232.423H321.477V241.051ZM345.192 241.051H353.815V232.423H345.192V241.051ZM357.092 241.051H365.716V232.423H357.092V241.051ZM380.893 241.051H389.517V232.423H380.893V241.051ZM404.695 241.051H413.318V232.423H404.695V241.051ZM416.595 241.051H425.219V232.423H416.595V241.051ZM428.496 241.051H437.119V232.423H428.496V241.051ZM440.396 241.051H449.02V232.423H440.396V241.051ZM464.111 241.051H472.735V232.423H464.111V241.051ZM476.012 241.051H484.635V232.423H476.012V241.051ZM487.912 241.051H496.536V232.423H487.912V241.051ZM499.813 241.051H508.437V232.423H499.813V241.051ZM511.714 241.051H520.337V232.423H511.714V241.051ZM535.515 241.051H544.138V232.423H535.515V241.051ZM547.415 241.051H556.039V232.423H547.415V241.051ZM571.216 241.051H579.84V232.423H571.216V241.051ZM583.031 241.051H591.654V232.423H583.031V241.051ZM594.931 241.051H603.555V232.423H594.931V241.051ZM606.832 241.051H615.455V232.423H606.832V241.051ZM630.633 241.051H639.257V232.423H630.633V241.051Z" fill="url(#paint0_linear_7950_26268)"/>
<defs>
<linearGradient id="paint0_linear_7950_26268" x1="325.746" y1="0.923462" x2="325.746" y2="199.808" gradientUnits="userSpaceOnUse">
<stop stop-color="#5AFFC8" stop-opacity="0"/>
<stop offset="0.337316" stop-color="#18D696" stop-opacity="0.75"/>
<stop offset="1" stop-color="#009B67"/>
</linearGradient>
</defs>
</svg>
