<svg width="25" height="24" viewBox="0 0 25 24" fill="none" xmlns="http://www.w3.org/2000/svg">
<path fill-rule="evenodd" clip-rule="evenodd" d="M7.01541 16.0327C6.20721 16.0325 5.41387 15.8155 4.71813 15.4042C4.0224 14.993 3.44977 14.4025 3.05999 13.6945C2.6702 12.9866 2.47753 12.1869 2.50209 11.3791C2.52664 10.5713 2.76752 9.78487 3.19959 9.10186C3.63165 8.41886 4.23909 7.86431 4.95851 7.49606C5.67794 7.12781 6.483 6.95936 7.28972 7.00828C8.09643 7.0572 8.87524 7.3217 9.54489 7.77418C10.2145 8.22667 10.7505 8.85056 11.0969 9.58077H20.5644L22.5 11.5163L20.5644 13.4519L19.274 12.1615L17.9837 13.4519L16.6933 12.1615L15.4029 13.4519L14.1125 12.1615L12.8221 13.4519H11.0969C10.7305 14.2242 10.1525 14.8767 9.43003 15.3336C8.70753 15.7904 7.87022 16.0329 7.01541 16.0327ZM5.72502 12.8067C6.06726 12.8067 6.39547 12.6708 6.63746 12.4288C6.87946 12.1868 7.01541 11.8586 7.01541 11.5163C7.01541 11.1741 6.87946 10.8459 6.63746 10.6039C6.39547 10.3619 6.06726 10.226 5.72502 10.226C5.38279 10.226 5.05458 10.3619 4.81259 10.6039C4.57059 10.8459 4.43464 11.1741 4.43464 11.5163C4.43464 11.8586 4.57059 12.1868 4.81259 12.4288C5.05458 12.6708 5.38279 12.8067 5.72502 12.8067Z" fill="#AFAFAF"/>
</svg>
