<svg width="16" height="16" viewBox="0 0 16 16" fill="none" xmlns="http://www.w3.org/2000/svg">
<g clip-path="url(#clip0_5726_15998)">
<path d="M9.9999 8.66678C9.63125 8.66678 9.33328 8.96548 9.33328 9.3334V12.0001C9.33328 12.3674 9.03457 12.6667 8.66654 12.6667H6.66656V2.66684C6.66656 2.09751 6.30389 1.58885 5.75861 1.39952L5.56122 1.33348H8.66654C9.03457 1.33348 9.33328 1.6328 9.33328 2.00022V4.0002C9.33328 4.36812 9.63125 4.66682 9.9999 4.66682C10.3685 4.66682 10.6665 4.36812 10.6665 4.0002V2.00022C10.6665 0.897574 9.76919 0.000244141 8.66654 0.000244141H1.49998C1.47459 0.000244141 1.45335 0.0115966 1.4287 0.0148924C1.39659 0.0122069 1.36595 0.000244141 1.33336 0.000244141C0.598016 0.000244141 0 0.598138 0 1.33348V13.3334C0 13.9027 0.362667 14.4113 0.907949 14.6007L4.91999 15.9381C5.05598 15.9801 5.19123 16.0001 5.33332 16.0001C6.06866 16.0001 6.66656 15.4021 6.66656 14.6667V14.0001H8.66654C9.76919 14.0001 10.6665 13.1028 10.6665 12.0001V9.3334C10.6665 8.96548 10.3685 8.66678 9.9999 8.66678Z" fill="#AFAFAF"/>
<path d="M15.805 6.19548L13.1383 3.52889C12.9477 3.33821 12.661 3.28084 12.4117 3.38411C12.163 3.48751 12.0003 3.73079 12.0003 4.0002V6.00017H9.33373C8.9657 6.00017 8.66699 6.29875 8.66699 6.66679C8.66699 7.03483 8.9657 7.33341 9.33373 7.33341H12.0003V9.33339C12.0003 9.6028 12.163 9.84608 12.4117 9.94947C12.661 10.0527 12.9477 9.99537 13.1383 9.80482L15.805 7.1381C16.0656 6.87748 16.0656 6.4561 15.805 6.19548Z" fill="#AFAFAF"/>
</g>
<defs>
<clipPath id="clip0_5726_15998">
<rect width="16" height="16" fill="white"/>
</clipPath>
</defs>
</svg>
