<svg width="24" height="24" viewBox="0 0 24 24" fill="none" xmlns="http://www.w3.org/2000/svg">
<g clip-path="url(#clip0_2580_7177)">
<g clip-path="url(#clip1_2580_7177)">
<g clip-path="url(#clip2_2580_7177)">
<path fill-rule="evenodd" clip-rule="evenodd" d="M6.60361 5.06921C5.15495 5.06921 3.97669 6.24747 3.97669 7.69613C3.97669 8.26844 4.16118 8.79831 4.47282 9.2299C3.37872 9.93296 2.65113 11.1607 2.65113 12.5565V12.9984C2.65113 13.4731 3.03595 13.8579 3.51063 13.8579H9.69659C10.1713 13.8579 10.5561 13.4731 10.5561 12.9984V12.5565C10.5561 11.1607 9.8285 9.93296 8.7344 9.2299C9.04604 8.79831 9.23053 8.26844 9.23053 7.69613C9.23053 6.24747 8.05227 5.06921 6.60361 5.06921ZM5.6957 7.69613C5.6957 7.19568 6.10316 6.78821 6.60361 6.78821C7.10406 6.78821 7.51153 7.19568 7.51153 7.69613C7.51153 8.19658 7.10406 8.60404 6.60361 8.60404C6.10316 8.60404 5.6957 8.19658 5.6957 7.69613ZM6.60361 10.323C7.69224 10.323 8.60192 11.1063 8.79797 12.1389H4.40925C4.6053 11.1063 5.51498 10.323 6.60361 10.323Z" fill="#AFAFAF"/>
<path d="M3.51063 14.79C3.03595 14.79 2.65113 15.1748 2.65113 15.6495C2.65113 16.1242 3.03595 16.509 3.51063 16.509H9.69659C10.1713 16.509 10.5561 16.1242 10.5561 15.6495C10.5561 15.1748 10.1713 14.79 9.69659 14.79H3.51063Z" fill="#AFAFAF"/>
<path d="M12.4361 5.06921C11.9614 5.06921 11.5766 5.45403 11.5766 5.92871C11.5766 6.40339 11.9614 6.78821 12.4361 6.78821H19.5058C19.9804 6.78821 20.3653 6.40339 20.3653 5.92871C20.3653 5.45403 19.9804 5.06921 19.5058 5.06921H12.4361Z" fill="#AFAFAF"/>
<path d="M12.4361 7.72033C11.9614 7.72033 11.5766 8.10516 11.5766 8.57984C11.5766 9.05452 11.9614 9.43934 12.4361 9.43934H19.5058C19.9804 9.43934 20.3653 9.05452 20.3653 8.57984C20.3653 8.10516 19.9804 7.72033 19.5058 7.72033H12.4361Z" fill="#AFAFAF"/>
<path fill-rule="evenodd" clip-rule="evenodd" d="M15.9709 11.2552C15.4962 11.2552 15.1114 11.64 15.1114 12.1147V15.6495C15.1114 16.1242 15.4962 16.509 15.9709 16.509H19.5058C19.9804 16.509 20.3653 16.1242 20.3653 15.6495V12.1147C20.3653 11.64 19.9804 11.2552 19.5058 11.2552H15.9709ZM16.8304 14.79V12.9742H18.6463V14.79H16.8304Z" fill="#AFAFAF"/>
<path fill-rule="evenodd" clip-rule="evenodd" d="M2.27152 2C1.02256 2 0 2.99669 0 4.23039V16.8844C0 18.1181 1.02256 19.1148 2.27152 19.1148H10.1746V20.3281H8.32023C7.86687 20.3281 7.5413 20.7376 7.5413 21.1876C7.5413 21.6375 7.86687 22.0471 8.32023 22.0471H13.7542C14.2075 22.0471 14.5331 21.6375 14.5331 21.1876C14.5331 20.7376 14.2075 20.3281 13.7542 20.3281H11.8936V19.1148H21.7285C22.9774 19.1148 24 18.1181 24 16.8844V4.23039C24 2.99669 22.9774 2 21.7285 2H2.27152ZM1.77664 4.23039C1.77664 3.96895 1.99508 3.74922 2.27152 3.74922H21.7285C22.0049 3.74922 22.2234 3.96895 22.2234 4.23039V16.8844C22.2234 17.1458 22.0049 17.3655 21.7285 17.3655H2.27152C1.99508 17.3655 1.77664 17.1458 1.77664 16.8844V4.23039Z" fill="#AFAFAF"/>
</g>
</g>
</g>
<defs>
<clipPath id="clip0_2580_7177">
<rect width="24" height="24" fill="white"/>
</clipPath>
<clipPath id="clip1_2580_7177">
<rect width="24" height="24" fill="white"/>
</clipPath>
<clipPath id="clip2_2580_7177">
<rect width="24" height="24" fill="white"/>
</clipPath>
</defs>
</svg>
