<svg xmlns="http://www.w3.org/2000/svg" width="16" height="16" viewBox="0 0 16 16" fill="none">
  <g clip-path="url(#clip0_5726_15970)">
    <path fill-rule="evenodd" clip-rule="evenodd" d="M2.25641 0H11.2821C12.5607 0 13.5385 0.977778 13.5385 2.25641V8.12041C13.2051 8.04167 12.8574 8 12.5 8C10.0147 8 8 10.0147 8 12.5C8 12.8574 8.04167 13.2051 8.12041 13.5385H2.25641C0.977778 13.5385 0 12.5607 0 11.2821V2.25641C0 0.977778 0.977778 0 2.25641 0ZM6.54359 9.47692L10.0034 4.9641C10.2291 4.58803 10.2291 4.13675 9.85299 3.91111C9.55214 3.68547 9.02564 3.76068 8.8 4.06154L5.94188 7.82222L4.73846 6.24273C4.51282 5.86667 4.06154 5.86667 3.68547 6.09231C3.3094 6.31795 3.3094 6.84444 3.53504 7.1453L5.34017 9.47692C5.4906 9.70256 5.71624 9.77778 5.94188 9.77778C6.16752 9.77778 6.39316 9.62735 6.54359 9.47692Z" fill="#AFAFAF"/>
    <path fill-rule="evenodd" clip-rule="evenodd" d="M14.9748 10.0252C14.3415 9.39177 13.4665 9 12.5 9C11.5335 9 10.6585 9.39177 10.0252 10.0252C9.39177 10.6585 9 11.5335 9 12.5C9 13.4665 9.39177 14.3415 10.0252 14.9748C10.6585 15.6082 11.5335 16 12.5 16C13.4665 16 14.3415 15.6082 14.9748 14.9748C15.6082 14.3415 16 13.4665 16 12.5C16 11.5335 15.6082 10.6585 14.9748 10.0252ZM13.9074 13.5959C13.6737 13.8296 13.3509 13.9746 12.9951 13.9746H11.4372C11.2528 13.9746 11.1033 13.8251 11.1033 13.6407C11.1033 13.4563 11.2528 13.3068 11.4372 13.3068H12.9951C13.338 13.3068 13.6184 13.0264 13.6184 12.6835C13.6184 12.4981 13.5605 12.3464 13.4353 12.2213C13.3224 12.1082 13.1666 12.0382 12.9951 12.0382H12.0651L12.2634 12.2361C12.3938 12.3658 12.3945 12.5766 12.2648 12.7069C12.1352 12.8373 11.9243 12.8379 11.794 12.7082L11.0268 11.9425C10.8964 11.8129 10.8959 11.6021 11.0255 11.4717L11.7912 10.7046C11.9209 10.5743 12.1316 10.5737 12.262 10.7033C12.3924 10.8329 12.393 11.0437 12.2633 11.1741L12.0674 11.3704H12.9951C13.7067 11.3704 14.2862 11.9499 14.2862 12.6615C14.2862 13.032 14.1531 13.3502 13.9074 13.5959Z" fill="#AFAFAF"/>
  </g>
  <defs>
    <clipPath id="clip0_5726_15970">
      <rect width="16" height="16" fill="white"/>
    </clipPath>
  </defs>
</svg>